<?xml version="1.0" encoding="UTF-8"?>
<svg data-bbox="19.333 9.518 361.191 166.485" viewBox="0 0 400 196.092" height="196.092" width="400" xmlns="http://www.w3.org/2000/svg" data-type="ugc">
    <g>
        <path fill-rule="evenodd" fill="#0f7a9e" d="M297.917 65.164c-3.754.461-10.539 3.144-11.056 4.371a.242.242 0 0 1-.208.132c-.084 0-.288.131-.452.291-.165.161-.628.554-1.029.875-1.041.833-3.354 3.194-2.464 2.515.161-.122.293-.157.294-.077.002.08.309.483.683.896a79.992 79.992 0 0 1 1.706 1.976c1.754 2.098 2.129 2.447 2.299 2.142.162-.289.666-.803 1.914-1.952 4.428-4.074 11.073-5.363 16.857-3.27 1.172.424 2.706 1.164 2.706 1.305 0 .073.071.132.158.132.331 0 2.464 1.609 3.379 2.549 5.603 5.755 6.412 14.496 1.958 21.138-.752 1.121-3.316 3.828-3.946 4.165-.204.109-.332.261-.285.338.047.077-.03.095-.172.04-.143-.054-.259-.016-.259.086 0 .101-.056.167-.125.147-.069-.02-.33.1-.58.267l-.456.304.622.771c.342.423.81.965 1.039 1.204.229.238.679.765.999 1.17.32.406.789.95 1.041 1.209.253.259.46.54.46.625 0 .084.075.154.167.154.091 0 .166.079.166.176 0 .097-.086.123-.192.058-.119-.074-.147-.046-.073.074.086.139.211.143.447.017.18-.096.287-.241.237-.322-.05-.081-.003-.201.104-.268.122-.075.151-.048.077.072-.208.336.137.208.603-.224.247-.229.53-.417.63-.417.759 0 5.194-5.181 6.491-7.583.198-.367.425-.779.505-.917 1.844-3.188 2.934-10.358 2.16-14.2-.597-2.962-1.233-4.963-2.103-6.616-.212-.403-.386-.828-.386-.945 0-.116-.059-.236-.132-.266-.072-.031-.307-.342-.52-.692-.446-.73-.59-.522 1.319-1.904.596-.432 1.196-.901 1.333-1.043a5.07 5.07 0 0 1 .746-.575c.597-.38.774-.52 1.515-1.203.315-.29.658-.556.763-.591.228-.076-.1-.798-.363-.798a.158.158 0 0 1-.161-.154c0-.084-.207-.366-.459-.625a19.35 19.35 0 0 1-1.042-1.205c-.32-.404-.695-.857-.832-1.007a58.55 58.55 0 0 1-.792-.896c-.345-.399-.541-.528-.541-.359 0 .146-.067.224-.15.173-.082-.05-.198.037-.259.194-.094.245-.131.251-.264.041-.131-.206-.156-.199-.158.044-.002.17-.235.387-.566.525-.309.129-.614.319-.678.421-.063.103-.185.144-.27.091-.086-.053-.155-.033-.155.044s-.418.437-.929.801c-.511.364-1.354.979-1.875 1.366-.938.697-1.363.868-1.363.546 0-.092-.083-.167-.185-.167s-.533-.287-.959-.637c-4.005-3.305-11.224-5.236-16.939-4.532m-16.014 9.119l-.471.617.439-.325c.241-.179.475-.456.518-.617.114-.416.043-.369-.486.325m25.764 29.8c-.267.153-.324.241-.157.244.143.004.405-.104.583-.238.414-.314.119-.317-.426-.006m4.666 5.431l-.416.339.541-.264c.298-.145.542-.3.542-.343 0-.166-.265-.059-.667.268"/>
        <path fill-rule="evenodd" fill="#1a678c" d="M315.208 14.646c-2.736 2.937-3.786 4.935-4.554 8.664-.714 3.47.013 8.187 1.673 10.857.086.137.318.55.516.916.198.367.411.704.472.75.062.046.385.46.717.919 3.437 4.748 11.189 7.481 16.806 5.925.642-.178 1.203-.33 1.246-.338.201-.037.709-.216 1.155-.406.443-.189 1.594.906 1.594 1.516 0 .045.149.271.331.503.182.231.291.487.241.568-.05.08-.014.147.081.147s.312.281.482.625c.415.838 1.181 2.195 1.529 2.708.155.229.335.529.399.667.064.137.208.401.319.586l.691 1.167c.269.457.588.929.708 1.05.121.121.219.297.219.391 0 .094.152.384.337.643l.336.473-.961.679c-1.4.989-2.12 1.511-4.795 3.477L332 59.15c-1.146.84-2.196 1.618-2.333 1.73-.138.112-.78.563-1.427 1.003-.648.44-1.376.984-1.618 1.208-.242.225-.501.409-.575.409-.073 0-.336.187-.583.417-.247.229-.528.416-.623.416-.096 0-.174.069-.174.153 0 .085-.282.327-.625.539-1.434.884-1.451.955-.498 1.992.389.422.968 1.097 1.288 1.5.32.403.789.945 1.042 1.204.252.259.459.541.459.625 0 .085.073.154.161.154.307 0 .565.694.315.848-.517.319-.809.567-.809.686 0 .127 2.186-1.368 2.883-1.973.202-.174.629-.481.95-.682a8.23 8.23 0 0 0 1-.746c.23-.211.717-.593 1.084-.849a92.494 92.494 0 0 0 1.666-1.207c.55-.408 1.3-.941 1.667-1.184.367-.244.704-.491.75-.55.085-.11 5.215-3.891 5.884-4.337.524-.349 2.3-1.704 2.684-2.046.51-.456.923-.52 1.277-.199.177.16.322.232.322.161 0-.071.093-.052.208.043.115.095.921.528 1.792.963.87.435 1.782.93 2.025 1.098.244.169.562.307.709.307.146 0 .266.075.266.167 0 .092.14.167.313.167.172 0 .402.107.511.239.109.132.408.285.665.342.256.056.618.244.804.417.186.173.383.27.438.215.055-.055.257.042.449.216s.437.317.543.318c.297.004 1.277.485 1.277.627 0 .069.142.126.315.126.174 0 .359.112.412.25a.41.41 0 0 0 .351.25c.267 0 .337.196.139.393-.274.274-.453 3.833-.215 4.277.082.155.179.536.215.847.036.311.265 1.007.508 1.545.243.539.441 1.037.441 1.107 0 .691 2.854 3.672 4.334 4.528.504.292.954.573 1 .625.045.052.217.117.382.145.164.028.622.189 1.018.359 1.12.48 4.206.723 5.051.397.36-.139.356-.155-.25-.837-.34-.383-.734-.832-.875-.999-1.442-1.705-2.423-2.814-2.53-2.86a.226.226 0 0 1-.13-.189c0-.128-.903-1.195-1.875-2.216-.252-.265-.458-.544-.458-.621a.233.233 0 0 0-.129-.196c-.109-.046-1.595-1.73-2.531-2.867a13.276 13.276 0 0 0-.514-.584 27.65 27.65 0 0 1-.99-1.188c-.403-.504-.906-1.075-1.118-1.269-.212-.194-.385-.432-.385-.528 0-.096-.062-.2-.139-.23-.077-.031-.619-.618-1.205-1.306a92.202 92.202 0 0 0-1.597-1.833 20.825 20.825 0 0 1-.916-1.084 14.229 14.229 0 0 0-.805-.94 13.056 13.056 0 0 1-.671-.756 95.425 95.425 0 0 0-2.167-2.566 54.605 54.605 0 0 1-1-1.163 32.61 32.61 0 0 0-1.041-1.192c-.161-.165-.292-.348-.292-.407 0-.06-.258-.36-.574-.666-.316-.307-.78-.84-1.032-1.184a11.642 11.642 0 0 0-.801-.98 14.124 14.124 0 0 1-.6-.667 211.29 211.29 0 0 0-2.572-2.996 35.88 35.88 0 0 1-.837-1 25.098 25.098 0 0 0-1.125-1.287c-.253-.259-.459-.534-.459-.611a.233.233 0 0 0-.129-.196c-.109-.046-1.595-1.73-2.531-2.867a13.276 13.276 0 0 0-.514-.584 27.65 27.65 0 0 1-.99-1.188c-.403-.504-.906-1.075-1.118-1.269-.212-.194-.385-.438-.385-.542 0-.104-.066-.189-.146-.189-.081 0-.467-.416-.86-.924-.504-.653-.791-.894-.978-.821a2.931 2.931 0 0 1-.432.133c-.092.016-.258.179-.369.362-.115.189-.205.238-.209.113-.004-.165-.07-.155-.268.042-.226.226-.384.276-.823.259-.047-.002-.328.127-.625.288-1.396.754-5.752.325-7.495-.739-.342-.209-.702-.379-.8-.379-.426 0-2.987-2.807-3.415-3.742-1.289-2.818-1.476-5.324-.588-7.872.282-.808.587-1.495.678-1.526.091-.03.128-.116.082-.191-.046-.074.122-.359.374-.632.984-1.066 1.085-1.414.575-1.983a36.078 36.078 0 0 1-1.034-1.232c-.321-.401-.79-.943-1.042-1.205-.252-.262-.458-.502-.458-.533 0-.133-1.234-1.418-1.361-1.418-.076 0-.27.141-.431.313m6.955 51.775c-.116.139-.164.3-.107.357.056.057.15-.02.208-.17.057-.15.171-.231.253-.181.083.051.15.013.15-.084 0-.256-.26-.216-.504.078m-.832.584c-.404.307-.405.313-.037.218.208-.053.422-.168.475-.254.184-.297-.024-.28-.438.036"/>
        <path fill-rule="evenodd" fill="#1c6183" d="M323.833 9.855c-1.993.429-1.966.421-3.166.923a16.902 16.902 0 0 0-3.33 1.879c-.819.603-2.138 1.873-1.828 1.76.212-.077 1.491 1.068 1.491 1.334 0 .031.206.271.458.533s.721.804 1.042 1.205c.321.401.786.955 1.034 1.232.248.276.403.584.346.683-.109.187.104.028 1.185-.886 5.31-4.493 14.108-1.436 15.779 5.482.593 2.457-.151 6.41-1.469 7.804-.115.121-.208.276-.208.345 0 .131-1.449 1.586-2.167 2.176-.229.188-.297.301-.151.251.182-.063.49.2.978.833.393.508.779.924.86.924.08 0 .146.085.146.189s.173.348.385.542c.212.194.715.765 1.118 1.269.402.504.848 1.039.99 1.188.141.149.373.412.514.584.936 1.137 2.422 2.821 2.531 2.867a.233.233 0 0 1 .129.196c0 .077.206.352.459.611.252.259.758.838 1.125 1.287.366.449.743.899.837 1 .094.101.652.747 1.24 1.434a86.117 86.117 0 0 0 1.245 1.437c.196.207 1.07 1.248 1.592 1.896.408.507.283.014-.169-.666-.44-.662-1.829-3.002-1.829-3.081 0-.039-.195-.356-.433-.704a9.511 9.511 0 0 1-.591-.965 8.839 8.839 0 0 0-.358-.667c-.111-.183-.614-1.032-1.118-1.885a93.242 93.242 0 0 0-1.206-2 8.286 8.286 0 0 1-.407-.692 35.394 35.394 0 0 0-.744-1.318l-.629-1.075.532-.682a35.02 35.02 0 0 1 1.092-1.349c.344-.408 1.693-3.135 1.694-3.424a.743.743 0 0 1 .14-.417c.17-.194.502-1.325.78-2.656.266-1.275.217-5.353-.07-5.89-.114-.213-.165-.5-.112-.637.052-.137-.085-.637-.304-1.112-.459-.991-.681-1.638-.629-1.83.019-.074-.079-.249-.219-.389s-.217-.315-.17-.39c.046-.075-.033-.181-.176-.235-.143-.055-.218-.168-.167-.25.051-.083-.019-.194-.156-.246-.137-.053-.249-.24-.249-.417 0-.176-.12-.366-.267-.423-.153-.058-.227-.209-.172-.351.052-.137.018-.249-.076-.249s-.126-.074-.07-.164c.061-.099-.019-.122-.198-.057-.165.059-.245.047-.178-.027s-.074-.303-.313-.508c-.239-.206-.388-.449-.332-.541.057-.092-.079-.213-.302-.269-.289-.072-.388-.195-.344-.425.042-.215-.011-.294-.159-.238a.3.3 0 0 1-.348-.118c-.08-.131-.056-.161.067-.085.105.065.192.039.192-.058s-.163-.176-.361-.176c-.199 0-.314-.048-.256-.106.116-.116-.592-.728-.842-.728-.086 0-.299-.163-.474-.362-.174-.199-.212-.3-.083-.224.163.096.196.076.108-.066a.305.305 0 0 0-.356-.115c-.127.048-.31-.059-.406-.239-.096-.18-.285-.327-.419-.327s-.245-.094-.247-.208c-.002-.149-.045-.142-.15.024-.12.189-.187.169-.36-.108-.118-.188-.313-.303-.434-.257-.121.047-.22-.011-.22-.128 0-.116-.05-.162-.111-.1-.062.061-.231.008-.375-.118-.334-.289-2.18-.975-2.183-.811-.002.067-.067.021-.146-.103-.083-.131-.529-.252-1.057-.287-.503-.034-1.124-.141-1.379-.238-.697-.265-3.81-.156-5.416.189m-9.427 5.499c-.343.365-.384.457-.139.309.303-.183.834-.83.682-.83-.029 0-.274.235-.543.521m33.519 36.538c.316.307.575.607.575.667 0 .059.131.242.292.407.16.165.629.701 1.041 1.192.413.491.863 1.014 1 1.163A95.425 95.425 0 0 1 353 57.887c.137.174.439.514.671.756.231.242.593.665.805.94.211.275.624.763.916 1.084.293.32 1.012 1.146 1.597 1.833.586.688 1.128 1.275 1.205 1.306.077.03.139.134.139.23s.173.334.385.528c.212.194.715.765 1.118 1.269.402.504.848 1.039.99 1.188.141.149.373.412.514.584.936 1.137 2.422 2.821 2.531 2.867a.233.233 0 0 1 .129.196c0 .077.206.356.458.621.972 1.021 1.875 2.088 1.875 2.216 0 .074.059.159.13.189.107.046 1.088 1.155 2.53 2.86.141.167.535.617.875 1 .533.599.579.712.334.809-.779.31.893.092 2.005-.261 2.323-.737 4.871-2.552 5.925-4.22.248-.393.508-.715.576-.715.069 0 .125-.107.125-.236 0-.13.058-.262.129-.292.193-.084 1.005-2.127 1.148-2.889.16-.853.173-.908.225-.958.171-.165.076-3.259-.111-3.617-.255-.488-.299-.883-.057-.508.291.45.174.001-.181-.694-.191-.375-.311-.822-.266-.994.045-.172.015-.312-.068-.312-.235 0-.863-1.461-.724-1.685.074-.121.053-.157-.054-.091-.248.154-.707-.049-.707-.312 0-.12-.057-.243-.125-.273-.238-.106-2.082-2.306-1.937-2.311.08-.003.012-.082-.15-.177-.163-.094-.256-.235-.208-.313.048-.077-.063-.101-.247-.053-.183.048-.333.015-.333-.072 0-.088-.192-.247-.426-.354-.235-.107-.38-.269-.324-.36.059-.095-.061-.148-.282-.124-.253.027-.368-.037-.337-.187.033-.153-.044-.193-.231-.122-.156.06-.475-.021-.715-.181-.24-.159-.51-.306-.602-.326-.092-.02-.579-.15-1.083-.288-2.903-.797-6.721.079-9.599 2.202l-.755.557-1.948-.973c-1.072-.536-1.986-1.012-2.032-1.057-.046-.046-.625-.359-1.288-.696a484.827 484.827 0 0 1-3.045-1.559c-.229-.116-1.455-.743-2.724-1.395-1.269-.651-2.334-1.184-2.367-1.184-.032 0 .2.252.516.559m22.054 10.351c.378.133.688.203.688.155 0-.048.243.082.541.288 4.061 2.817 2.61 8.667-2.22 8.947-5.622.325-7.008-7.51-1.655-9.358.954-.329 1.776-.339 2.646-.032M355 62.986c.401.327.667.434.667.268 0-.043-.244-.198-.542-.343l-.542-.264.417.339"/>
        <path fill-rule="evenodd" fill="#0b84ac" d="M282.597 73.531c-.145.207-.264.454-.264.549 0 .095-.146.264-.324.376-.743.464-2.551 3.485-3.418 5.711-.16.412-.359.88-.441 1.039a1.46 1.46 0 0 0-.15.561c0 .149-.109.619-.243 1.044-1.214 3.852-.933 9.965.651 14.189.154.412.323.885.375 1.05.051.165.29.671.53 1.123l.923 1.742c.267.505.554.918.638.918.084 0-.016-.281-.223-.625-.473-.786-.418-.735.85.792.57.688 1.103 1.275 1.185 1.306.081.03.147.118.147.195 0 .077.207.352.46.611s.722.802 1.042 1.206c.32.404.713.873.873 1.041.341.359.381.542.084.381-.115-.062.029.119.319.402.29.284.619.536.73.562.111.025.367.196.568.379.666.607 1.001.837 1.674 1.153.367.173.704.369.75.437.086.127 1.731.92 2.917 1.406 1.317.541 3.371 1.041 5.667 1.381 3.545.525 9.159-.284 11.936-1.72.264-.137.48-.194.48-.128 0 .067.09.031.2-.079.11-.11.303-.2.429-.2s.342-.113.48-.251c.138-.139.313-.214.387-.168.075.046.175-.016.222-.139.047-.122.354-.35.684-.507.562-.266.803-.601.432-.601-.092 0-.167-.07-.167-.154 0-.085-.207-.366-.46-.625a19.021 19.021 0 0 1-1.041-1.209 19.95 19.95 0 0 0-.999-1.17c-.765-.796-1.655-1.965-1.576-2.07.043-.057-.119.083-.36.31-.411.387-1.325.748-1.902.75-.14.001-.41.11-.601.243-.19.134-.788.318-1.328.41l-1.971.337c-6.034 1.037-13.207-2.605-16.554-8.406-1.494-2.589-2.074-4.738-2.134-7.916-.055-2.835.032-3.4.936-6.113.285-.855.58-1.554.657-1.554.077 0 .189-.225.25-.5.06-.275.179-.5.263-.5.084 0 .153-.15.153-.333 0-.184.08-.334.177-.334.097 0 .13-.075.073-.166-.056-.092-.023-.167.074-.167s.176-.113.176-.25c0-.138.057-.231.125-.208.069.023.138-.025.153-.107.015-.081.116-.203.226-.27.137-.085.025-.304-.361-.709a49.19 49.19 0 0 1-1.63-1.872c-.589-.707-1.189-1.404-1.334-1.548a12.686 12.686 0 0 1-.707-.822l-.445-.559-.263.376m-1.268 28.912a.357.357 0 0 1 .177.279c.007.256.644 1.017.756.905.048-.048-.01-.193-.129-.323a3.545 3.545 0 0 1-.395-.551c-.098-.174-.269-.334-.379-.356-.11-.021-.124-.001-.03.046m1.261 1.758c.391.466 1.1 1.132 1.205 1.132.144 0-1.044-1.299-1.286-1.407-.156-.069-.127.028.081.275m1.914 2.027c.227.218.443.368.481.335.107-.095-.516-.73-.716-.73-.098 0 .007.178.235.395"/>
        <path fill-rule="evenodd" fill="#0493bb" d="M59.833 61.083c0 5.913-.034 10.75-.075 10.75-.041 0-.323-.25-.625-.555-.569-.576-3.001-2.445-3.181-2.445-.056 0-.424-.217-.819-.482-.941-.634-3.38-1.714-5.05-2.237-6.176-1.934-14.27-.984-19.05 2.236-.394.266-.757.483-.807.483-.142 0-2.136 1.536-2.198 1.693a.244.244 0 0 1-.21.141c-.351 0-3.818 3.773-3.818 4.155 0 .098-.062.178-.137.178-.076 0-.319.343-.542.761-.938 1.766-1.101 2.058-1.269 2.268-.626.781-1.787 4.581-2.221 7.264-.497 3.076-.031 8.355.959 10.874.054.137.107.287.118.333.105.437.787 1.989 1.318 3 .361.688.739 1.418.84 1.624.101.205.24.374.309.375.069 0 .125.08.125.177 0 .499 2.817 3.652 4.75 5.317.491.423 2.435 1.738 2.917 1.973.229.112.641.337.916.501 1.019.607 3.795 1.666 5.25 2.004 2.298.532 3.084.612 5.917.6 2.468-.009 3.281-.076 4.583-.378a82.974 82.974 0 0 1 1.924-.428c6.079-1.104 13.185-7.701 15.543-14.432 1.43-4.08 1.367-2.872 1.367-26.003V50.333h-6.834v10.75m202.129 13.372a14809.801 14809.801 0 0 1-19.42 19.352l-8.207 8.159-.043-18.441-.042-18.442h-6.667l-.042 23.459-.042 23.458h6.019l6.364-6.292a29037.987 29037.987 0 0 0 33.02-32.679c2.712-2.689 4.931-4.939 4.93-5-.001-.062-1.049-1.16-2.33-2.44l-2.329-2.328-11.211 11.194M93.167 65.177c-3.005.207-5.879 1.005-8.667 2.406-1.447.727-3.031 1.716-3.139 1.959a.232.232 0 0 1-.194.125c-.288 0-3.292 2.83-4.272 4.023-4.374 5.331-6.256 13.713-4.579 20.393.092.367.166.687.165.712-.009.151.572 1.985.673 2.122.067.091.26.541.429 1 .383 1.039 1.405 2.929 2.299 4.249 5.87 8.67 18.154 12.398 27.701 8.406 4.584-1.916 8.149-4.561 10.467-7.767.288-.397.567-.759.621-.805.242-.204 1.677-2.678 2.08-3.583.244-.55.513-1.13.596-1.289.352-.669 1.005-2.797.907-2.955-.21-.339-7.247-.225-7.361.119-.083.246-1.091 2.331-1.641 3.391-.09.174-.222.317-.292.317-.069 0-.127.078-.127.174 0 .22-.145.398-1.663 2.022-3.089 3.305-7.046 4.971-11.812 4.971-2.306 0-4.078-.272-5.441-.835-.275-.114-.65-.264-.834-.334-.816-.312-2.583-1.245-2.583-1.365 0-.073-.083-.133-.184-.133-.245 0-2.905-2.082-3.202-2.507a13.22 13.22 0 0 0-.841-.989c-.333-.361-.606-.702-.606-.758 0-.056-.182-.34-.404-.632C80.455 96.551 79 93.192 79 92.388c0-.181 3.562-.228 19.875-.262l19.875-.043.055-2.25c.087-3.562-.717-8.71-1.496-9.575a.68.68 0 0 1-.142-.393c0-.267-1.773-3.886-1.972-4.025-.071-.049-.312-.39-.534-.756-.756-1.242-2.597-3.272-4.056-4.471a23.425 23.425 0 0 1-.863-.738c-.12-.115-.299-.208-.397-.208-.098 0-.178-.062-.178-.136 0-.075-.309-.319-.686-.542a43.01 43.01 0 0 1-1.125-.687c-.656-.42-2.811-1.456-3.773-1.815-2.917-1.085-6.727-1.565-10.416-1.31m53.644-.099c-.036.036-.686.082-1.444.102-1.274.034-3.427.4-4.617.786-.275.089-.838.263-1.25.386-.852.254-3.748 1.702-4.75 2.374-.367.246-.808.539-.98.652-.429.281-2.132 1.699-2.667 2.22-.103.1-.538.587-.967 1.083-.429.496-.946 1.09-1.148 1.319-1.511 1.714-3.62 5.956-4.31 8.667-.612 2.409-.652 3.378-.667 16.291l-.015 12.709h6.816l.068-13.042c.074-13.982.035-13.348.989-15.875 1.232-3.261 3.469-6.117 6.157-7.861.398-.258.762-.52.808-.581.721-.959 5.783-2.381 8.499-2.387 2.923-.007 7.785 1.479 9 2.75.046.047.309.229.584.403.456.289 1.04.793 2.233 1.926.242.229.663.717.936 1.083.274.367.618.8.765.964.443.493 1.849 3.443 2.281 4.786.189.59.214.718.526 2.667.108.676.173 5.613.174 13.125l.001 12.042h6.667l.002-13.042c.002-14.166.031-13.659-.956-16.958-.688-2.299-2.251-5.367-3.536-6.939-.235-.287-.591-.74-.793-1.007-2.179-2.886-7.035-6.313-10.467-7.388a23.597 23.597 0 0 1-1.048-.354c-1.205-.457-6.626-1.166-6.891-.901m49.856.084c-6.173.415-12.313 3.675-16.411 8.716-.6.737-2.589 3.873-2.589 4.081 0 .051-.193.5-.429.999-2.403 5.079-2.591 13.465-.414 18.459.573 1.314 1.402 2.958 1.756 3.479.231.34.42.662.42.714 0 .512 2.956 3.786 4.75 5.261 1.409 1.158 1.433 1.176 2.126 1.542.343.181.624.375.624.431 0 .087 1.085.616 3.25 1.584 1.177.527 2.612.968 3.833 1.179.275.047 1.09.193 1.81.323 4.233.765 9.336-.083 13.857-2.3 3.669-1.8 7.772-5.442 9.345-8.297.177-.32.366-.621.421-.666.106-.089.443-.711.905-1.667 5.309-10.993 1.592-23.887-8.754-30.362-1.082-.677-3.618-1.971-3.862-1.971-.094 0-.408-.103-.696-.229-1.342-.585-4.195-1.211-5.692-1.248a41.08 41.08 0 0 1-1.834-.087c-.366-.032-1.454-.005-2.416.059m-150.75 7.08c1.656.293 2.532.514 2.796.707.112.081.498.248.857.371.359.122 1.019.438 1.466.701.446.263.884.479.971.479.088 0 .16.059.16.131 0 .072.224.263.499.425.535.317 1.744 1.362 2.574 2.225 3.52 3.666 5.147 8.831 4.346 13.802-.322 1.997-.457 2.5-.96 3.584-.235.504-.476 1.085-.537 1.291-.061.207-.181.375-.267.375-.085 0-.137.057-.114.125.154.468-3.969 5.375-4.516 5.375-.08 0-.438.235-.794.522-.597.48-2.036 1.226-3.629 1.881-3.803 1.562-9.409 1.17-13.282-.93-3.192-1.731-6.262-4.937-7.316-7.639-.125-.321-.283-.659-.351-.75-.168-.225-.724-1.953-.993-3.084-.456-1.921-.1-7.622.516-8.241a.624.624 0 0 0 .157-.379c0-.865 2.514-4.983 3.731-6.111 1.344-1.246 2.457-2.187 2.602-2.203.046-.005.384-.198.75-.429a17.88 17.88 0 0 1 1.667-.88c.55-.253 1.141-.534 1.313-.623.462-.241 1.997-.619 2.987-.737.477-.056.898-.131.936-.166.171-.158 3.225-.035 4.431.178m51.73-.063c4.801.777 8.855 3.365 11.619 7.415.396.58 1.734 3.32 1.734 3.55 0 .083.112.366.249.629.137.262.249.683.25.935l.001.459H95.25c-16.11 0-16.25-.003-16.25-.332 0-.491 1.341-3.843 1.667-4.168.046-.046.194-.309.329-.584 1.54-3.13 6.448-6.751 10.254-7.566a133.47 133.47 0 0 0 1.5-.33c.941-.215 3.593-.22 4.897-.008m104.02.067c4.413.886 9.74 4.461 11.059 7.421.061.137.259.475.44.75.335.509.409.657.914 1.833 4.064 9.462-1.679 20.282-12.021 22.645-2.252.514-6.636.292-8.142-.413a3.49 3.49 0 0 0-.69-.222 2.925 2.925 0 0 1-.666-.228 33.918 33.918 0 0 0-.978-.472c-.366-.17-.704-.356-.75-.412-.046-.056-.346-.235-.666-.399-3.019-1.539-6.715-6.402-7.473-9.832-.102-.459-.257-1.171-.345-1.584-.743-3.48.114-7.871 2.196-11.25 1.877-3.047 5.519-6.137 8.205-6.962a51.84 51.84 0 0 0 1.25-.423 10.59 10.59 0 0 1 1.824-.431c.5-.06.95-.152 1-.204.119-.12 4.077.029 4.843.183"/>
        <path fill-rule="evenodd" fill="#244c6c" d="M121.037 124.375l.046 2.375 2.375.046 2.375.046V122h-4.842l.046 2.375m-91.287 5.957c-1.817.27-5.243 1.839-5.556 2.543-.03.069-.138.125-.239.125-.802 0-4.249 5.057-3.867 5.674.054.088.024.159-.066.159-.183 0-.446 1.213-.597 2.75-.253 2.572.591 5.926 2.03 8.068.738 1.099 3.01 3.439 3.177 3.273.048-.049.181.044.294.205.113.162.773.578 1.466.926 1.249.625 1.739.812 3.025 1.152.422.112 5.193.215 13 .282l12.333.104 1.083.495c3.721 1.7 5.587 5.892 4.282 9.618-.514 1.47-1.67 3.105-2.715 3.841-.403.284-.733.578-.733.652 0 .074-.146.134-.324.134-.178 0-.367.07-.42.156-.4.648-1.245.678-19.24.678h-17.35V176h17.581c17.884 0 18.193-.01 19.836-.625.896-.336 2.578-1.182 2.837-1.427a7.52 7.52 0 0 1 .686-.528c.553-.383 2.56-2.428 2.56-2.608 0-.067.099-.221.219-.342.351-.352 1.281-2.13 1.281-2.447 0-.159.081-.371.181-.47.577-.578.993-4.701.643-6.386l-.313-1.5c-.538-2.566-4.575-7.5-6.136-7.5-.078 0-.231-.09-.34-.199a1.003 1.003 0 0 0-.408-.243c-.115-.025-.66-.202-1.21-.395-1.644-.576-2.85-.63-14.417-.654-11.803-.025-12.011-.038-13.75-.856-.782-.368-3.453-2.819-3.389-3.111.015-.069-.131-.479-.325-.912-.783-1.747-.864-4.039-.208-5.905.173-.491.288-.892.256-.892-.087 0 .566-.779 1.416-1.691.413-.442.844-.805.959-.806.114-.002.208-.078.208-.17 0-.091.098-.166.217-.166s.304-.088.411-.195c1.053-1.053 2.279-1.12 20.585-1.13l16.63-.009-.047-2.291-.046-2.292-17.333-.021c-9.534-.012-17.709.034-18.167.103m60.305-.006c-.657.076-1.28.19-1.385.255-.105.065-.43.152-.722.193-.636.09-2.134.573-2.356.76-.087.073-.301.133-.475.133-.358 0-3.277 1.422-3.534 1.721a.85.85 0 0 1-.397.244c-1.521.325-7.186 6.232-7.548 7.871-.03.136-.1.284-.155.33-.192.16-1.159 2-1.051 2 .06 0 .031.095-.065.21-.252.303-.697 1.66-.598 1.821.046.075.02.136-.058.136s-.242.356-.365.792c-.91 3.229-.991 8.687-.175 11.791l.416 1.584c.334 1.264 1.953 4.661 2.677 5.614.221.291.403.604.403.694 0 .09.056.189.125.219.068.031.421.431.783.889 1.471 1.861 4.943 4.917 5.586 4.917a.17.17 0 0 1 .172.167c0 .091.072.166.16.166.087 0 .519.211.958.468 1.548.907 4.426 1.944 6.299 2.27.275.048.875.158 1.333.245 1.993.377 8.537.046 8.914-.452.047-.063.199-.125.336-.138 1.229-.115 5.174-1.751 6.013-2.493.145-.128.351-.233.459-.233.107 0 .195-.061.195-.136 0-.075.319-.314.708-.532 1.991-1.112 6.069-5.88 7.373-8.62.252-.529.551-1.149.664-1.379.253-.514 1.026-3.055 1.153-3.791l.094-.542h-4.78l-.373 1.103a27.73 27.73 0 0 1-.637 1.709 9.766 9.766 0 0 0-.283.688c-.03.139-1.033 1.696-1.703 2.644-1.955 2.765-6.863 6.345-9.305 6.788-.259.047-.525.119-.591.16-1.2.741-6.771.761-9.403.034a18.395 18.395 0 0 0-.876-.224c-.361-.068-3.167-1.406-4.041-1.927-1.502-.894-4.183-3.363-5.083-4.681-2.964-4.337-3.974-8.156-3.429-12.961.078-.687.108-1.306.067-1.375-.041-.068.005-.125.102-.125.097 0 .176-.131.176-.291-.002-.374.448-1.714.946-2.823.213-.476.388-.906.388-.956 0-.05.294-.572.654-1.159 1.542-2.521 3.115-4.277 5.012-5.598.321-.224.621-.448.667-.498.046-.05.233-.173.417-.273.183-.1.705-.388 1.16-.641a15.447 15.447 0 0 1 1.666-.781c.462-.177.99-.387 1.174-.466.623-.268 2.329-.668 3.333-.78l1.5-.17c1.683-.197 6.905.802 7.658 1.464a.659.659 0 0 0 .372.139c.118 0 .704.3 1.303.667.599.366 1.154.666 1.233.666.079 0 .238.115.354.254.116.14.242.223.281.185.038-.039.236.091.439.287.204.197.78.733 1.282 1.191a28 28 0 0 1 1.608 1.609c.383.426.74.745.792.708.052-.037.058-.017.012.043-.045.061.105.356.333.656.229.3.416.625.416.723 0 .098.058.178.127.178.07 0 .202.137.292.306.751 1.396 1.74 3.672 1.823 4.194.033.206.462.258 2.462.296l2.422.046-.144-.713c-.441-2.189-2.046-5.922-2.975-6.918-.191-.204-.344-.429-.341-.5.007-.144-.989-1.486-1.749-2.356a25.006 25.006 0 0 0-3.417-3.198c-.412-.316-.775-.63-.805-.699-.031-.069-.13-.125-.22-.125s-.402-.18-.694-.4c-1.38-1.04-4.13-2.177-7.114-2.941-1.586-.406-6.217-.588-8.445-.333M121 153.083V176h4.833v-45.833H121v22.916m29.583-22.759c-.641.075-1.504.224-1.916.332-1.495.391-2.587.739-2.742.873a.634.634 0 0 1-.358.138c-1.713 0-9.774 5.868-9.442 6.873.023.07-.024.127-.105.127-.67 0-3.673 5.583-4.117 7.655-.048.222-.12.458-.161.524-.629 1.018-.972 8.972-.463 10.737.106.367.285 1.079.399 1.584.311 1.379 1.283 3.748 2.154 5.25.213.366.471.816.574 1 .384.682 1.33 1.916 1.469 1.916.08 0 .105.064.057.142-.091.147 2.081 2.413 3.141 3.275.338.275.703.577.812.672.385.335 1.372.999 2.031 1.368 1.12.626 3.388 1.735 3.618 1.769.119.018.441.119.716.225 2.802 1.078 8.507 1.528 11.667.921 2.599-.5 6.946-2.234 7.549-3.01.118-.153.268-.26.333-.239.209.071.701-.14.701-.301 0-.085.094-.156.208-.158.193-.002.842-.495 1.744-1.325.203-.186.41-.339.46-.339.115 0 2.213-2.091 2.758-2.75 1-1.209 1.497-1.894 1.497-2.065 0-.102.058-.185.128-.185.071 0 .274-.281.451-.625.176-.343.43-.756.563-.916.134-.161.188-.292.122-.292s.019-.206.189-.458c.337-.498.965-2.014 1.141-2.755l.111-.462-2.618.046-2.618.046-.418 1c-.23.55-.535 1.131-.677 1.291-.143.161-.211.292-.152.292s.001.131-.13.292c-.724.886-2.092 2.786-2.092 2.904 0 .075-.115.137-.256.137-.14 0-.313.156-.383.346-.07.19-.199.357-.286.371-.171.027-.433.23-1.384 1.071-.334.296-.702.54-.816.542-.115.002-.209.061-.209.131 0 .146-.065.183-2.215 1.248-.88.435-1.694.791-1.811.791-.117 0-.515.104-.885.232-3.346 1.151-8.035.816-12.214-.873-.481-.195-.875-.303-.875-.241s-.093-.009-.208-.158c-.115-.149-.554-.451-.976-.672-.814-.427-1.501-.878-1.961-1.288a67.68 67.68 0 0 0-1.193-1c-.501-.412-.94-.817-.975-.898-.035-.082-.305-.419-.6-.75-1.823-2.045-3.676-6.003-4.047-8.643l-.076-.542h40.953l-.036-2.875c-.035-2.742-.12-3.41-.752-5.958-.235-.947-1.436-4.001-1.704-4.334-.111-.137-.329-.512-.485-.833-.304-.629-.637-1.2-.777-1.333-.048-.046-.228-.309-.401-.584-.173-.275-.415-.56-.538-.633-.123-.073-.224-.22-.224-.327 0-1.135-6.913-6.191-9.416-6.887-.092-.026-.58-.203-1.084-.394-2.557-.968-7.314-1.418-10.75-1.018m52.25-.11c-.046.042-.589.119-1.209.172-.619.052-1.195.138-1.28.191-.085.052-.479.161-.875.242-1.449.295-4.722 1.61-5.344 2.147-.16.139-.292.204-.292.145 0-.146-2.532 1.579-3.178 2.165-2.578 2.341-5.431 5.794-5.401 6.536.003.057-.098.225-.224.372-.283.33-1.528 3.049-1.71 3.733-1.13 4.246-1.153 4.619-1.153 18.144V176h4.65l.058-12.375c.062-13.41.044-13.129 1.021-16.125 1.026-3.149 3.253-6.361 5.854-8.444 1.044-.836 3.195-2.222 3.295-2.122.041.041.169-.04.285-.18.116-.14.309-.254.429-.254.121 0 .655-.179 1.188-.398 1.974-.811 5.319-1.376 7.053-1.193 2.826.299 4.733.797 6.681 1.747 1.398.681 2.555 1.358 2.625 1.535.03.078.127.142.215.142.173 0 .168-.004 1.396 1.041 2.337 1.989 5.583 6.887 5.583 8.426 0 .202.059.367.13.367.072 0 .148.205.168.456.021.251.15.997.287 1.659.207 1.003.248 3.245.248 13.461V176h4.847l-.048-12.923c-.032-8.369-.107-12.964-.215-13.041-.092-.066-.185-.457-.208-.869-.045-.831-.29-1.943-.623-2.834-.643-1.719-1.334-3.271-1.528-3.433-.121-.101-.171-.232-.111-.291.06-.06.021-.109-.086-.109s-.179-.056-.159-.125c.053-.191-.536-1.334-.801-1.554-.129-.108-.234-.26-.234-.34 0-.079-.108-.276-.24-.437-1.599-1.963-2.031-2.47-2.151-2.521-.078-.034-.34-.289-.583-.567-1.324-1.512-3.651-3.203-6.174-4.483-.768-.391-1.481-.727-1.583-.747-.102-.02-.598-.192-1.103-.382-1.184-.447-2.697-.833-3.749-.956-1.128-.133-5.647-.269-5.751-.174m50.084.117c-.55.067-1.3.204-1.667.304-.367.101-.854.216-1.083.257a5.35 5.35 0 0 0-.834.236c-.229.09-.716.257-1.083.372-2.249.708-5.899 2.962-8.009 4.948-.774.728-2.908 3.283-2.908 3.482 0 .072-.147.289-.327.481-.432.459-2.016 3.605-1.905 3.783.047.077.006.139-.091.139s-.164.057-.148.125c.016.069-.049.313-.145.542-1.003 2.392-1.283 4.14-1.292 8.083-.009 4.062.268 5.718 1.423 8.5.114.275.215.538.224.584.027.138 1.258 2.559 1.475 2.903 1.47 2.323 4.787 6.097 5.359 6.097.06 0 .311.187.558.416.247.23.544.417.659.417.116 0 .211.056.211.125.004.39 3.695 2.152 5.978 2.853 4.012 1.232 9.103 1.353 12.901.307.438-.121.75-.267.692-.324-.058-.058.044-.066.226-.019.182.048.382.006.443-.094.062-.1.259-.181.438-.181s.456-.07.615-.155c.159-.084.869-.425 1.576-.757.708-.332 1.672-.863 2.142-1.18.47-.316.923-.575 1.005-.575.083 0 .15-.059.15-.131 0-.072.229-.266.509-.431 1.164-.688 4.148-3.907 5.428-5.855 1.206-1.836 2.941-5.577 2.59-5.586-.061-.001-.033-.057.062-.125.094-.067.274-.535.399-1.039.124-.504.261-1.01.304-1.125.059-.16-.475-.208-2.335-.208h-2.412l-.295.792c-1.279 3.43-2.417 5.244-4.747 7.561-.794.79-1.776 1.652-2.182 1.915-.406.263-.775.517-.821.564-.361.368-2.866 1.548-4.333 2.041-3.85 1.294-8.444 1.082-12.334-.569-.88-.373-3.16-1.601-3.333-1.794-.26-.291-1.508-1.177-1.657-1.177a.172.172 0 0 1-.176-.167c0-.092-.313-.448-.695-.791-.795-.716-2.34-2.747-2.94-3.865-.902-1.683-1.038-1.981-1.526-3.343-.728-2.032-1.081-5.031-.842-7.151.099-.88.197-1.824.217-2.099.019-.275.077-.538.129-.584.051-.046.255-.585.454-1.199.322-.995.969-2.439 1.628-3.634 4.664-8.459 16.47-11.629 24.66-6.622 1.216.743 1.712 1.072 2.064 1.369.91.766 1.927 1.691 2.203 2.003.989 1.119 1.232 1.423 1.798 2.25.978 1.431 1.716 2.906 2.336 4.667l.264.75 2.44.046 2.441.046-.299-1.13c-.445-1.682-1.076-3.257-2.007-5.01-2.597-4.889-7.744-9.399-12.409-10.872a51.398 51.398 0 0 1-1.083-.354c-2.305-.796-7.067-1.18-10.083-.812m50.666-.054c-1.316.122-4.632.957-4.991 1.257a.668.668 0 0 1-.369.133c-.506 0-3.556 1.636-5.223 2.801-1.045.731-3.677 3.253-4.468 4.282-.623.811-1.953 2.949-1.893 3.043.031.047-.011.132-.093.188-.202.138-1.334 2.53-1.61 3.401-.912 2.877-1.134 4.217-1.194 7.201-.061 2.981.125 4.568.839 7.167.309 1.126 1.687 4.36 2.029 4.763.123.145.223.347.223.45 0 .103.094.247.209.32.114.074.351.415.526.759.175.343.381.625.458.625.077 0 .141.074.141.165 0 1.079 6.71 6.648 8.333 6.916.046.008.26.112.476.231 4.116 2.283 13.292 2.685 17.066.748.252-.13.458-.194.458-.144 0 .05.184-.029.408-.176.224-.147.43-.246.458-.22.086.082 2.377-1.069 2.506-1.258.068-.099.124-.121.125-.05.008.401 3.762-2.509 5.253-4.072 2.406-2.521 2.973-3.387 5.006-7.64.109-.229.248-.623.308-.875l.109-.459h-5.294l-.3.792c-.337.891-.442 1.075-1.712 3-.499.756-.973 1.375-1.054 1.375-.08 0-.146.112-.146.25 0 .137-.071.25-.156.25-.086 0-.555.396-1.042.88-2.336 2.323-5.518 3.938-9.052 4.596-.921.171-5.172.272-5.75.136-.138-.032-.55-.115-.917-.185-1.035-.197-2.573-.684-3.612-1.145-.52-.23-.989-.376-1.042-.323-.053.053-.096.017-.096-.08 0-.098-.394-.381-.875-.63-.481-.248-1.03-.594-1.219-.767-.189-.173-.429-.315-.533-.315-.103 0-1.035-.825-2.07-1.834-1.034-1.008-1.82-1.833-1.745-1.833.075 0-.113-.315-.417-.699-1.197-1.511-3.141-6.254-3.141-7.661 0-.077 9.236-.14 20.525-.14h20.524l-.098-3.125c-.138-4.392-.522-5.991-2.326-9.68-1.466-3-5.462-7.862-6.461-7.862-.075 0-.161-.062-.192-.139-.404-1.009-6.997-3.899-9.305-4.078-.229-.018-.466-.1-.526-.183-.108-.149-5.778-.274-7.058-.156m41.584.052c-.898.112-2.299.523-2.873.843-.159.089-.366.161-.46.161-.625 0-4.667 3.244-4.667 3.746 0 .056-.151.264-.336.461-1.59 1.707-2.724 7.801-1.874 10.068l.303.809c.068.183.136.408.15.5.061.397 1.194 2.754 1.402 2.916.059.046.321.371.583.722a9.206 9.206 0 0 0 2.022 2.03c.366.273.704.542.75.598.299.363 2.427 1.419 3.5 1.736 1.708.506 2.557.534 18.75.622l7.666.042 1 .489c1.429.699 2.9 1.848 3.345 2.613 1.098 1.889 1.155 2.112 1.155 4.482v2.25l-.617 1.25c-.918 1.856-2.77 3.585-4.526 4.224-.374.136-5.528.214-18.107.275l-17.583.084-.046 2.376-.047 2.377 17.647-.005c9.705-.002 17.695-.053 17.755-.112.06-.06.381-.137.713-.171a4.953 4.953 0 0 0 1.17-.298c.31-.13.619-.252.686-.271 1.225-.352 3.837-2.296 4.955-3.689.689-.857 1.054-1.432.965-1.52-.057-.057-.029-.104.062-.104.092 0 .339-.393.551-.875.212-.481.488-1.1.614-1.375.753-1.641.998-5.639.455-7.439-.386-1.282-1.103-3.024-1.351-3.281-.117-.121-.212-.295-.212-.387 0-.091-.094-.266-.209-.387a13.84 13.84 0 0 1-.625-.768c-.483-.635-2.03-2.151-2.196-2.153-.062-.001-.212-.098-.333-.216-.435-.422-2.163-1.297-3.43-1.736l-1.291-.447-11.833-.05c-13.262-.055-13.741-.094-15.458-1.263-.252-.172-.459-.272-.459-.223 0 .049-.26-.171-.577-.489-.318-.317-.656-.577-.75-.577-.095 0-.173-.087-.173-.193 0-.106-.206-.462-.457-.792-.252-.329-.442-.648-.422-.708.019-.06-.075-.2-.209-.312a.762.762 0 0 1-.245-.516c0-.172-.059-.313-.131-.313-.166 0-.188-.19-.276-2.416-.135-3.401 1.334-5.861 4.32-7.239 1.766-.814 2.468-.843 20.129-.844l16.458-.001v-4.666l-17.208.024c-9.465.014-17.621.076-18.125.138m-189.695 4.678c5.044.544 9.503 2.986 12.78 6.999 1.252 1.533 3.021 5.132 3.354 6.824.044.227.133.452.196.5.063.048.125.368.138.712l.023.625h-36.13v-.411c0-.226.102-.732.226-1.125.125-.393.325-1.052.445-1.464.318-1.092 1.724-3.917 2.489-5.003.993-1.41 3.461-3.832 4.291-4.21.21-.096.383-.224.383-.285 0-.06.318-.277.708-.481.39-.205.971-.528 1.292-.719.555-.33 1.858-.855 3.5-1.411.625-.211 3.273-.638 4.388-.706.168-.01 1.03.06 1.917.155m153.247.075c1.084.135 2.049.294 2.145.354.096.059.41.167.697.239.856.215 2.371.815 3.138 1.243.395.22.98.533 1.301.696.321.163.696.385.833.494 3.656 2.904 4.64 4.06 6.206 7.282.666 1.371 1.729 4.443 1.537 4.443-.037 0 .004.188.091.417l.158.417h-36.334l.065-.542a5.01 5.01 0 0 1 .155-.792c.048-.137.325-.951.614-1.808.554-1.641 1.536-3.592 2.455-4.875.301-.421.512-.815.467-.875-.044-.059-.032-.072.028-.028.06.045.266-.093.458-.307 1.513-1.675 1.591-1.746 3.178-2.923.917-.678 4.422-2.594 4.422-2.416 0 .042.166-.011.368-.119.642-.344 1.998-.67 3.716-.894 2.206-.288 2.05-.287 4.302-.006"/>
        <path fill-rule="evenodd" fill="#264c74" d="M176.726 153.75c-.001.825.028 1.184.062.797.035-.387.036-1.062.001-1.5-.034-.438-.063-.122-.063.703"/>
        <path fill-rule="evenodd" fill="#0c8cac" d="M19.548 88.583c.001.459.033.626.072.373a2.968 2.968 0 0 0-.003-.833c-.039-.205-.071.002-.069.46m261.088 12.6c.198.329.311.648.251.708-.06.06-.017.109.095.109s.158.075.101.167c-.056.091.019.166.167.166.161 0 .222.078.151.193-.074.119-.046.147.074.073.112-.07.243.007.309.182.135.352.185.42.951 1.293.318.362.533.73.479.818-.054.088-.021.111.075.052.095-.059.275.019.4.173.196.241.193.261-.022.14-.353-.197.365.452.759.686.178.106.299.293.268.416-.03.124-.003.173.06.109.063-.063.31.065.548.286.598.555.673.377.09-.214a18.333 18.333 0 0 1-1.057-1.219c-.32-.406-.789-.95-1.042-1.209-.253-.259-.46-.534-.46-.611 0-.077-.066-.165-.147-.195-.082-.031-.615-.618-1.185-1.306-1.262-1.52-1.321-1.576-.865-.817"/>
        <path fill-rule="evenodd" fill="#245c84" d="M337.083 13c.166.183.377.333.468.333.092 0-.006-.15-.218-.333-.211-.183-.422-.333-.468-.333-.046 0 .052.15.218.333M339 14.652c.229.187.342.343.25.347-.2.007.268.328.484.332.218.003-.419-.665-.815-.858-.24-.115-.216-.064.081.179m.833.991c0 .079.183.281.407.449.224.168.374.358.334.423-.04.064.044.161.186.216.282.108.234-.009-.322-.773-.329-.451-.605-.595-.605-.315m1.205 1.555a.47.47 0 0 0 .264.264c.122.04.159-.036.097-.198-.116-.303-.461-.366-.361-.066m.462.699c0 .137.075.296.167.353.091.057.166-.009.166-.147 0-.137-.075-.296-.166-.353-.092-.057-.167.009-.167.147m1.157 2.311c.082.207.195.517.25.691.055.173.141.275.19.226.1-.1-.363-1.292-.502-1.292-.048 0-.021.169.062.375m30.25 35.881c.178.134.403.242.5.239.097-.003.031-.115-.147-.25s-.403-.242-.5-.239c-.097.003-.031.115.147.25m1.676.827c.184.132.412.298.509.37.413.308.908.54.902.424-.007-.149-1.388-1.046-1.599-1.038-.08.003.005.113.188.244m1.526 1.031c-.097.097 1.655 2.235 1.933 2.359.068.03.125.156.125.28 0 .124.131.267.291.318.161.051.463.479.672.951.208.472.42.818.469.768.129-.129-.726-1.762-1.154-2.206-.199-.206-.386-.477-.416-.604-.087-.362-.555-.813-.846-.816-.212-.002-.22-.031-.042-.144.164-.104.083-.192-.304-.327-.291-.101-.484-.256-.43-.344.115-.185-.144-.39-.298-.235m3.576 5.136c-.003.184.101.521.232.75.297.52.297.271 0-.5-.147-.382-.227-.468-.232-.25m.41 1.75c.06.23.176.488.257.575.238.255.165-.11-.115-.575l-.251-.416.109.416"/>
    </g>
</svg>
